<svg width="109" height="22" viewBox="0 0 109 22" fill="none" xmlns="http://www.w3.org/2000/svg">
<g filter="url(#filter0_ii_243_8502)">
<path d="M11.0002 0C13.5454 4.12403e-05 15.8883 0.864932 17.7521 2.31622C15.1675 4.32898 13.505 7.4702 13.505 10.9998C13.505 14.5294 15.1676 17.6706 17.7521 19.6834C15.8883 21.1347 13.5454 22 11.0002 22C4.92509 22 0 17.0749 0 10.9998C8.109e-05 4.92475 4.92514 0 11.0002 0ZM24.5048 0C30.5799 0 35.5049 4.92475 35.505 10.9998C35.505 17.0749 30.5799 22 24.5048 22C21.9593 22 19.616 21.135 17.7521 19.6834C20.3369 17.6706 22 14.5296 22 10.9998C22 7.46998 20.3369 4.32897 17.7521 2.31622C19.616 0.864699 21.9594 2.52553e-05 24.5048 0Z" fill="url(#paint0_linear_243_8502)"/>
</g>
<path d="M11 0.209961C13.4004 0.21 15.6161 0.995719 17.4082 2.32129C14.8975 4.37676 13.295 7.50141 13.2949 11C13.295 14.4982 14.898 17.6213 17.4082 19.6768C15.6159 21.0028 13.4007 21.79 11 21.79C5.04122 21.7899 0.210072 16.9588 0.209961 11C0.21004 5.0412 5.04119 0.210072 11 0.209961ZM24.5049 0.209961C30.4637 0.210012 35.2948 5.04116 35.2949 11C35.2948 16.9588 30.4637 21.79 24.5049 21.79C22.1035 21.79 19.8872 21.0033 18.0947 19.6768C20.6056 17.6213 22.2099 14.4987 22.21 11C22.2099 7.50083 20.6061 4.37672 18.0947 2.32129C19.8871 0.995175 22.1039 0.209985 24.5049 0.209961Z" stroke="white" stroke-opacity="0.1" stroke-width="0.420683"/>
<path d="M46.1659 13.0682V10.48H49.3905C49.8006 10.48 50.1754 10.3951 50.5149 10.2254C50.8543 10.0557 51.123 9.80821 51.321 9.48292C51.519 9.15763 51.618 8.76162 51.618 8.2949C51.618 7.84232 51.519 7.45339 51.321 7.1281C51.123 6.80281 50.8543 6.5553 50.5149 6.38559C50.1754 6.21587 49.8006 6.13101 49.3905 6.13101H46.1659V3.54283H49.8784C50.826 3.54283 51.6817 3.73376 52.4454 4.11562C53.2091 4.49749 53.8102 5.04907 54.2486 5.77036C54.7012 6.47752 54.9275 7.31903 54.9275 8.2949C54.9275 9.27077 54.7012 10.1194 54.2486 10.8407C53.8102 11.5478 53.2091 12.0994 52.4454 12.4954C51.6817 12.8773 50.826 13.0682 49.8784 13.0682H46.1659ZM43.6201 18.5203V3.54283H46.9508V18.5203H43.6201Z" fill="#F9FAFB"/>
<path d="M56.4847 18.5203V8.21004H59.7305V18.5203H56.4847ZM59.7305 12.856L58.3728 11.7953C58.6415 10.5932 59.0941 9.65971 59.7305 8.99498C60.3669 8.33026 61.2509 7.9979 62.3823 7.9979C62.8773 7.9979 63.3087 8.07569 63.6764 8.23126C64.0583 8.37269 64.3906 8.59898 64.6735 8.91013L62.743 11.3498C62.6015 11.1942 62.4248 11.074 62.2126 10.9892C62.0005 10.9043 61.76 10.8619 61.4913 10.8619C60.9539 10.8619 60.5225 11.0316 60.1972 11.371C59.8861 11.6963 59.7305 12.1913 59.7305 12.856Z" fill="#F9FAFB"/>
<path d="M65.3784 18.5203V8.21004H68.6243V18.5203H65.3784ZM67.012 6.78866C66.5028 6.78866 66.0785 6.61895 65.7391 6.27951C65.4138 5.92594 65.2511 5.50164 65.2511 5.00664C65.2511 4.49749 65.4138 4.07319 65.7391 3.73376C66.0785 3.39433 66.5028 3.22461 67.012 3.22461C67.5211 3.22461 67.9383 3.39433 68.2636 3.73376C68.5889 4.07319 68.7516 4.49749 68.7516 5.00664C68.7516 5.50164 68.5889 5.92594 68.2636 6.27951C67.9383 6.61895 67.5211 6.78866 67.012 6.78866Z" fill="#F9FAFB"/>
<path d="M74.5052 18.7749C73.8971 18.7749 73.296 18.6971 72.702 18.5416C72.1221 18.386 71.5776 18.1668 71.0685 17.8839C70.5735 17.5869 70.1492 17.2475 69.7956 16.8656L71.6413 14.9987C71.9807 15.3664 72.3838 15.6564 72.8505 15.8685C73.3172 16.0665 73.8264 16.1655 74.3779 16.1655C74.7598 16.1655 75.0497 16.109 75.2477 15.9958C75.4599 15.8827 75.566 15.7271 75.566 15.5291C75.566 15.2745 75.4387 15.0836 75.1841 14.9563C74.9437 14.8149 74.6325 14.6946 74.2507 14.5956C73.8688 14.4825 73.4657 14.3623 73.0414 14.235C72.6171 14.1077 72.2141 13.9309 71.8322 13.7046C71.4503 13.4783 71.1392 13.1672 70.8988 12.7712C70.6583 12.361 70.5381 11.8448 70.5381 11.2225C70.5381 10.5578 70.7078 9.985 71.0473 9.50414C71.3867 9.00913 71.8676 8.62019 72.4898 8.33733C73.1121 8.05447 73.8405 7.91304 74.675 7.91304C75.5518 7.91304 76.358 8.06861 77.0934 8.37976C77.843 8.67677 78.4512 9.12227 78.9179 9.71628L77.0722 11.5832C76.7469 11.2013 76.3792 10.9326 75.969 10.777C75.573 10.6214 75.1841 10.5437 74.8022 10.5437C74.4345 10.5437 74.1587 10.6002 73.9749 10.7134C73.791 10.8124 73.6991 10.9609 73.6991 11.1589C73.6991 11.371 73.8193 11.5407 74.0597 11.668C74.3002 11.7953 74.6113 11.9085 74.9932 12.0075C75.375 12.1065 75.7781 12.2267 76.2024 12.3681C76.6267 12.5095 77.0298 12.7005 77.4116 12.9409C77.7935 13.1813 78.1046 13.5066 78.3451 13.9168C78.5855 14.3128 78.7057 14.8361 78.7057 15.4867C78.7057 16.4908 78.3239 17.2899 77.5601 17.8839C76.8106 18.4779 75.7923 18.7749 74.5052 18.7749Z" fill="#F9FAFB"/>
<path d="M80.307 18.5203V8.21004H83.5528V18.5203H80.307ZM86.9047 18.5203V12.4954C86.9047 11.9721 86.7421 11.569 86.4168 11.2862C86.1056 10.9892 85.7167 10.8407 85.25 10.8407C84.9247 10.8407 84.6348 10.9114 84.3802 11.0528C84.1256 11.1801 83.9205 11.3639 83.765 11.6044C83.6235 11.8448 83.5528 12.1418 83.5528 12.4954L82.3012 11.9438C82.3012 11.1235 82.4779 10.4234 82.8315 9.84357C83.1851 9.24956 83.666 8.79698 84.2741 8.48583C84.8823 8.16054 85.5682 7.9979 86.3319 7.9979C87.0532 7.9979 87.6967 8.16054 88.2625 8.48583C88.8423 8.81112 89.302 9.2637 89.6414 9.84357C89.9808 10.4234 90.1506 11.1164 90.1506 11.9226V18.5203H86.9047ZM93.5025 18.5203V12.4954C93.5025 11.9721 93.3398 11.569 93.0145 11.2862C92.7034 10.9892 92.3145 10.8407 91.8477 10.8407C91.5224 10.8407 91.2325 10.9114 90.9779 11.0528C90.7234 11.1801 90.5183 11.3639 90.3627 11.6044C90.2213 11.8448 90.1506 12.1418 90.1506 12.4954L88.2837 12.2408C88.312 11.3639 88.517 10.6144 88.8989 9.99207C89.2949 9.35563 89.8111 8.8677 90.4476 8.52826C91.0981 8.17469 91.8265 7.9979 92.6327 7.9979C93.4247 7.9979 94.1248 8.16761 94.7329 8.50705C95.3552 8.83234 95.8432 9.30613 96.1967 9.92843C96.5645 10.5366 96.7483 11.272 96.7483 12.1347V18.5203H93.5025Z" fill="#F9FAFB"/>
<path d="M102.975 18.7325C102.028 18.7325 101.179 18.4991 100.429 18.0324C99.694 17.5657 99.107 16.9293 98.6686 16.1231C98.2443 15.3169 98.0322 14.3976 98.0322 13.3652C98.0322 12.3328 98.2443 11.4135 98.6686 10.6073C99.107 9.80114 99.694 9.1647 100.429 8.69798C101.179 8.23126 102.028 7.9979 102.975 7.9979C103.668 7.9979 104.29 8.13226 104.842 8.40098C105.408 8.66969 105.867 9.04449 106.221 9.52535C106.575 9.99207 106.773 10.5295 106.815 11.1377V15.5927C106.773 16.2009 106.575 16.7454 106.221 17.2263C105.882 17.693 105.429 18.0607 104.863 18.3294C104.298 18.5981 103.668 18.7325 102.975 18.7325ZM103.633 15.8049C104.326 15.8049 104.884 15.5786 105.309 15.126C105.733 14.6593 105.945 14.0723 105.945 13.3652C105.945 12.8843 105.846 12.46 105.648 12.0923C105.464 11.7246 105.196 11.4417 104.842 11.2437C104.503 11.0316 104.107 10.9255 103.654 10.9255C103.201 10.9255 102.798 11.0316 102.445 11.2437C102.105 11.4417 101.83 11.7246 101.617 12.0923C101.419 12.46 101.32 12.8843 101.32 13.3652C101.32 13.8319 101.419 14.2491 101.617 14.6169C101.815 14.9846 102.091 15.2745 102.445 15.4867C102.798 15.6988 103.194 15.8049 103.633 15.8049ZM105.818 18.5203V15.7412L106.306 13.2379L105.818 10.7346V8.21004H109V18.5203H105.818Z" fill="#F9FAFB"/>
<defs>
<filter id="filter0_ii_243_8502" x="0" y="-1.68273" width="35.5049" height="25.3655" filterUnits="userSpaceOnUse" color-interpolation-filters="sRGB">
<feFlood flood-opacity="0" result="BackgroundImageFix"/>
<feBlend mode="normal" in="SourceGraphic" in2="BackgroundImageFix" result="shape"/>
<feColorMatrix in="SourceAlpha" type="matrix" values="0 0 0 0 0 0 0 0 0 0 0 0 0 0 0 0 0 0 127 0" result="hardAlpha"/>
<feOffset dy="-1.68273"/>
<feGaussianBlur stdDeviation="0.841366"/>
<feComposite in2="hardAlpha" operator="arithmetic" k2="-1" k3="1"/>
<feColorMatrix type="matrix" values="0 0 0 0 0 0 0 0 0 0 0 0 0 0 0 0 0 0 0.25 0"/>
<feBlend mode="normal" in2="shape" result="effect1_innerShadow_243_8502"/>
<feColorMatrix in="SourceAlpha" type="matrix" values="0 0 0 0 0 0 0 0 0 0 0 0 0 0 0 0 0 0 127 0" result="hardAlpha"/>
<feOffset dy="1.68273"/>
<feGaussianBlur stdDeviation="0.841366"/>
<feComposite in2="hardAlpha" operator="arithmetic" k2="-1" k3="1"/>
<feColorMatrix type="matrix" values="0 0 0 0 1 0 0 0 0 1 0 0 0 0 1 0 0 0 0.25 0"/>
<feBlend mode="normal" in2="effect1_innerShadow_243_8502" result="effect2_innerShadow_243_8502"/>
</filter>
<linearGradient id="paint0_linear_243_8502" x1="5.32206" y1="-3.37596e-09" x2="17.2936" y2="27.5923" gradientUnits="userSpaceOnUse">
<stop stop-color="#6D5FD5"/>
<stop offset="1" stop-color="#124D4A"/>
</linearGradient>
</defs>
</svg>
